# xmcd
#
# Track frame offsets:
#	182
#	13405
#	29247
#	45275
#	59490
#	79460
#	93220
#	107630
#	122210
#	139002
#
# Disc length: 2045 seconds
#
# Revision: 4
# Processed by: cddbd v1.4PL0 Copyright (c) Steve Scherf et al.
# Submitted via: MusicManager 7.0.3.0 
#
DISCID=8a07fb0a
DTITLE=Hal Ketchum - Past the Point of Rescue
DYEAR=1991
DGENRE=Country
TTITLE0=Small Town Saturday Night
TTITLE1=I Know Where Love Lives
TTITLE2=Old Soldiers
TTITLE3=Somebody's Love
TTITLE4=Past The Point Of Rescue
TTITLE5=Five O'Clock World
TTITLE6=I Miss My Mary
TTITLE7=Don't Strike A Match (To The Book Of Love)
TTITLE8=Long Day Comin'
TTITLE9=She Found The Place
EXTD=ID3G:   2
EXTT0=
EXTT1=
EXTT2=
EXTT3=
EXTT4=
EXTT5=
EXTT6=
EXTT7=
EXTT8=
EXTT9=
PLAYORDER=
